<svg width="98" height="98" viewBox="0 0 98 98" fill="none" xmlns="http://www.w3.org/2000/svg">
<path d="M21.7777 22.3223H65.3332V26.6778H21.7777V22.3223ZM21.7777 44.1H43.7896V48.4556H21.7777V44.1ZM63.64 33.2112H21.7777V37.5667H59.2872L63.64 33.2112ZM34.828 79.1405C35.5599 79.9797 36.4888 80.624 37.5313 81.0155C38.5738 81.407 39.6971 81.5335 40.8006 81.3836H62.0448C62.5502 81.3836 63.0348 81.1828 63.3922 80.8255C63.7496 80.4681 63.9503 79.9834 63.9503 79.478C63.9503 78.9727 63.7496 78.488 63.3922 78.1306C63.0348 77.7733 62.5502 77.5725 62.0448 77.5725H40.8006C38.3206 77.5289 38.7616 75.3757 39.1101 74.7087C39.5643 73.9259 39.9183 73.0891 40.1636 72.2179C40.3263 71.5169 40.2496 70.7816 39.9457 70.1293C39.6417 69.477 39.1281 68.9454 38.4867 68.6191C37.4562 68.1548 36.3019 68.0411 35.2006 68.2953C34.0993 68.5494 33.1117 69.1576 32.3889 70.0265C31.4524 70.9929 30.1512 72.471 28.9044 73.9084C29.6748 70.8894 30.6739 67.0157 31.6539 63.2373C31.9347 62.3763 31.8788 61.4409 31.4974 60.6196C31.116 59.7982 30.4375 59.1519 29.5986 58.8109C28.6696 58.4922 27.6542 58.5377 26.7574 58.9384C25.8606 59.339 25.1491 60.0649 24.7667 60.9697C23.5907 63.2318 14.2807 78.8329 14.1881 78.9908C14.0598 79.2056 13.975 79.4436 13.9387 79.6913C13.9023 79.9389 13.9151 80.1912 13.9763 80.4339C14.0998 80.924 14.413 81.3449 14.8469 81.6041C15.2808 81.8633 15.7999 81.9395 16.29 81.816C16.7801 81.6924 17.201 81.3792 17.4602 80.9453C17.8087 80.36 25.2403 67.9113 27.5842 63.7545C25.8202 70.56 23.8765 78.1333 23.7622 78.8138C23.6335 79.3142 23.6721 79.8429 23.8722 80.3192C24.0722 80.7955 24.4227 81.1933 24.8701 81.4517C25.3684 81.6988 25.9348 81.773 26.48 81.6626C27.0251 81.5522 27.518 81.2634 27.8809 80.8419C28.2239 80.5316 28.8663 79.7938 30.4861 77.9128C31.9952 76.1379 33.5408 74.3944 35.122 72.6834C35.7154 72.0573 36.0748 72.3349 35.7263 72.9502C35.0447 73.8115 34.6027 74.8376 34.445 75.9246C34.2872 77.0116 34.4194 78.1209 34.828 79.1405Z" fill="white"/>
<path d="M76.2221 59.0585V87.111H10.8888V10.8888H76.2221V24.4808L79.8427 20.8603C80.4 20.3106 81.011 19.8181 81.6666 19.3903V8.16656C81.6666 7.44458 81.3798 6.75217 80.8692 6.24166C80.3587 5.73114 79.6663 5.44434 78.9443 5.44434H8.16656C7.44458 5.44434 6.75217 5.73114 6.24166 6.24166C5.73114 6.75217 5.44434 7.44458 5.44434 8.16656V89.8332C5.44434 90.5552 5.73114 91.2476 6.24166 91.7581C6.75217 92.2686 7.44458 92.5555 8.16656 92.5555H78.9443C79.6663 92.5555 80.3587 92.2686 80.8692 91.7581C81.3798 91.2476 81.6666 90.5552 81.6666 89.8332V58.3289C79.9968 59.2137 78.0658 59.4725 76.2221 59.0585Z" fill="white"/>
<path d="M92.9041 32.2883L91.4804 30.8645C92.208 29.9029 92.5764 28.7171 92.5217 27.5125C92.467 26.3079 91.9927 25.1603 91.1809 24.2686C90.1272 23.3399 88.7492 22.8651 87.3471 22.9477C85.9449 23.0303 84.6322 23.6636 83.6948 24.7096L49.599 58.8L47.3205 67.3532C47.2844 67.4651 47.28 67.5848 47.3078 67.6991C47.3356 67.8133 47.3945 67.9177 47.4779 68.0005C47.5613 68.0834 47.6661 68.1415 47.7805 68.1685C47.8949 68.1955 48.0146 68.1904 48.1263 68.1535L56.6496 65.8478L88.4778 34.0196L89.8225 35.3671C89.9165 35.4609 89.991 35.5723 90.0418 35.6949C90.0926 35.8175 90.1188 35.9489 90.1188 36.0817C90.1188 36.2144 90.0926 36.3458 90.0418 36.4685C89.991 36.5911 89.9165 36.7025 89.8225 36.7963L76.4374 50.1814C76.0291 50.5901 75.7999 51.1442 75.8001 51.7218C75.8004 52.2994 76.0301 52.8533 76.4387 53.2616C76.8474 53.6699 77.4015 53.8991 77.9791 53.8989C78.5568 53.8986 79.1107 53.6689 79.5189 53.2603L92.9041 39.8751C93.9102 38.8684 94.4753 37.5035 94.4753 36.0803C94.4753 34.6571 93.9102 33.2922 92.9041 32.2855" fill="white"/>
</svg>
