<svg width="24" height="24" viewBox="0 0 24 24" fill="none" xmlns="http://www.w3.org/2000/svg">
<g clip-path="url(#clip0_608_113)">
<path d="M19.9993 6.00005H10.946L9.40601 3.88005C9.28189 3.71018 9.11933 3.5721 8.93163 3.47709C8.74392 3.38208 8.5364 3.33283 8.32601 3.33338H3.99935C3.64573 3.33338 3.30659 3.47385 3.05654 3.7239C2.80649 3.97395 2.66602 4.31309 2.66602 4.66671V19.3334C2.66602 19.687 2.80649 20.0261 3.05654 20.2762C3.30659 20.5262 3.64573 20.6667 3.99935 20.6667H19.9993C20.353 20.6667 20.6921 20.5262 20.9422 20.2762C21.1922 20.0261 21.3327 19.687 21.3327 19.3334V7.33338C21.3327 6.97976 21.1922 6.64062 20.9422 6.39057C20.6921 6.14052 20.353 6.00005 19.9993 6.00005ZM3.99935 7.33338V4.66671H8.32601L10.1393 7.33338H3.99935Z" fill="black"/>
</g>
<defs>
<clipPath id="clip0_608_113">
<rect width="24" height="24" fill="white"/>
</clipPath>
</defs>
</svg>
