<svg width="124" height="120" viewBox="0 0 124 120" fill="none" xmlns="http://www.w3.org/2000/svg">
<path d="M62 52.5C56.5189 52.5 51.2622 50.5246 47.3865 47.0083C43.5107 43.4919 41.3333 38.7228 41.3333 33.75C41.3333 28.7772 43.5107 24.0081 47.3865 20.4917C51.2622 16.9754 56.5189 15 62 15C67.4811 15 72.7378 16.9754 76.6135 20.4917C80.4893 24.0081 82.6667 28.7772 82.6667 33.75C82.6667 38.7228 80.4893 43.4919 76.6135 47.0083C72.7378 50.5246 67.4811 52.5 62 52.5ZM62 22.5C55.1387 22.5 49.6 27.525 49.6 33.75C49.6 39.975 55.1387 45 62 45C68.8613 45 74.4 39.975 74.4 33.75C74.4 27.525 68.8613 22.5 62 22.5Z" fill="white"/>
<path d="M111.6 82.5C109.285 82.5 107.467 80.85 107.467 78.75C107.467 76.65 109.285 75 111.6 75C113.915 75 115.733 73.35 115.733 71.25C115.733 66.2772 113.556 61.5081 109.68 57.9917C105.804 54.4754 100.548 52.5 95.0667 52.5H86.8C84.4853 52.5 82.6667 50.85 82.6667 48.75C82.6667 46.65 84.4853 45 86.8 45C93.6613 45 99.2 39.975 99.2 33.75C99.2 27.525 93.6613 22.5 86.8 22.5C84.4853 22.5 82.6667 20.85 82.6667 18.75C82.6667 16.65 84.4853 15 86.8 15C92.2811 15 97.5378 16.9754 101.414 20.4917C105.289 24.0081 107.467 28.7772 107.467 33.75C107.467 38.4 105.648 42.6 102.507 45.9C114.824 48.9 124 59.1 124 71.25C124 77.475 118.461 82.5 111.6 82.5ZM12.4 82.5C5.53867 82.5 0 77.475 0 71.25C0 59.1 9.09333 48.9 21.4933 45.9C18.4347 42.6 16.5333 38.4 16.5333 33.75C16.5333 28.7772 18.7107 24.0081 22.5865 20.4917C26.4622 16.9754 31.7189 15 37.2 15C39.5147 15 41.3333 16.65 41.3333 18.75C41.3333 20.85 39.5147 22.5 37.2 22.5C30.3387 22.5 24.8 27.525 24.8 33.75C24.8 39.975 30.3387 45 37.2 45C39.5147 45 41.3333 46.65 41.3333 48.75C41.3333 50.85 39.5147 52.5 37.2 52.5H28.9333C23.4522 52.5 18.1955 54.4754 14.3198 57.9917C10.444 61.5081 8.26667 66.2772 8.26667 71.25C8.26667 73.35 10.0853 75 12.4 75C14.7147 75 16.5333 76.65 16.5333 78.75C16.5333 80.85 14.7147 82.5 12.4 82.5ZM86.8 105H37.2C30.3387 105 24.8 99.975 24.8 93.75V86.25C24.8 71.775 37.7787 60 53.7333 60H70.2667C86.2213 60 99.2 71.775 99.2 86.25V93.75C99.2 99.975 93.6613 105 86.8 105ZM53.7333 67.5C48.2522 67.5 42.9955 69.4754 39.1198 72.9917C35.244 76.5081 33.0667 81.2772 33.0667 86.25V93.75C33.0667 95.85 34.8853 97.5 37.2 97.5H86.8C89.1147 97.5 90.9333 95.85 90.9333 93.75V86.25C90.9333 81.2772 88.756 76.5081 84.8802 72.9917C81.0045 69.4754 75.7478 67.5 70.2667 67.5H53.7333Z" fill="white"/>
</svg>
