<svg width="68" height="68" viewBox="0 0 68 68" fill="none" xmlns="http://www.w3.org/2000/svg">
<g clip-path="url(#clip0_93_2)">
<path d="M0 34C0 24.9826 3.58213 16.3346 9.95837 9.95837C16.3346 3.58213 24.9826 0 34 0C43.0174 0 51.6654 3.58213 58.0416 9.95837C64.4179 16.3346 68 24.9826 68 34C68 43.0174 64.4179 51.6654 58.0416 58.0416C51.6654 64.4179 43.0174 68 34 68C24.9826 68 16.3346 64.4179 9.95837 58.0416C3.58213 51.6654 0 43.0174 0 34ZM31.875 4.57725C29.0275 5.44425 26.2013 8.06225 23.8552 12.461C23.0827 13.9236 22.418 15.4406 21.8662 17H31.875V4.57725ZM17.3825 17C18.0916 14.7427 19.0019 12.5537 20.1025 10.4592C20.8422 9.07256 21.6906 7.74666 22.6398 6.494C17.3746 8.67879 12.8444 12.3242 9.58375 17H17.3825ZM14.909 31.875C15.0365 28.1478 15.4955 24.5735 16.235 21.25H7.1145C5.5337 24.5879 4.58826 28.191 4.3265 31.875H14.909ZM20.5998 21.25C19.7638 24.7342 19.2826 28.294 19.1632 31.875H31.875V21.25H20.5998ZM36.125 21.25V31.875H48.8325C48.7146 28.2941 48.2347 24.7343 47.4002 21.25H36.125ZM19.1675 36.125C19.2854 39.7059 19.7653 43.2657 20.5998 46.75H31.875V36.125H19.1675ZM36.125 36.125V46.75H47.4002C48.195 43.4987 48.7008 39.916 48.8368 36.125H36.125ZM21.8662 51C22.4556 52.6433 23.1186 54.1563 23.8552 55.539C26.2013 59.9377 29.0317 62.5515 31.875 63.4228V51H21.8662ZM22.6398 61.506C21.6906 60.2533 20.8422 58.9274 20.1025 57.5407C19.0019 55.4463 18.0916 53.2573 17.3825 51H9.58375C12.8391 55.6807 17.3709 59.3274 22.6398 61.506ZM16.235 46.75C15.4676 43.2566 15.0237 39.6999 14.909 36.125H4.3265C4.59 39.9075 5.56325 43.4902 7.1145 46.75H16.235ZM45.3603 61.506C50.6291 59.3274 55.1609 55.6807 58.4162 51H50.6175C49.9084 53.2573 48.9981 55.4463 47.8975 57.5407C47.1578 58.9274 46.3094 60.2533 45.3603 61.506ZM36.125 51V63.4228C38.9725 62.5558 41.7988 59.9377 44.1447 55.539C44.8814 54.1592 45.5444 52.6462 46.1337 51H36.125ZM51.765 46.75H60.8855C62.4368 43.4902 63.41 39.9075 63.6735 36.125H53.091C52.9763 39.6999 52.5324 43.2566 51.765 46.75ZM63.6735 31.875C63.4117 28.191 62.4663 24.5879 60.8855 21.25H51.765C52.5045 24.5735 52.9635 28.1478 53.091 31.875H63.6735ZM47.8975 10.4592C48.9473 12.4312 49.861 14.6243 50.6175 17H58.4162C55.1609 12.3193 50.6291 8.67259 45.3603 6.494C46.2868 7.701 47.1368 9.0355 47.8975 10.4592ZM46.1337 17C45.582 15.4406 44.9173 13.9236 44.1447 12.461C41.7988 8.06225 38.9725 5.4485 36.125 4.57725V17H46.1337Z" fill="currentColor"/>
</g>
<defs>
<clipPath id="clip0_93_2">
<rect width="68" height="68" fill="white"/>
</clipPath>
</defs>
</svg>
